HIERARCHY
ROOT Hips
{
  OFFSET 40.3414 83.9369 -0.324502
  CHANNELS 6 Xposition Yposition Zposition Zrotation Xrotation Yrotation
  JOINT spine
  {
    OFFSET 0 6.2448 0.359107
    CHANNELS 3 Zrotation Xrotation Yrotation
    JOINT spine1
    {
      OFFSET 0 9.06941 0
      CHANNELS 3 Zrotation Xrotation Yrotation
      JOINT spine2
      {
        OFFSET 0 8.69014 0
        CHANNELS 3 Zrotation Xrotation Yrotation
        JOINT Neck
        {
          OFFSET 0 22.3112 1.06372
          CHANNELS 3 Zrotation Xrotation Yrotation
          JOINT Head
          {
            OFFSET 0 6.74081 0
            CHANNELS 3 Zrotation Xrotation Yrotation
            End Site
            {
              OFFSET 0 16.3165 -5.38097
            }
          }
        }
        JOINT RightShoulder
        {
          OFFSET -3.65916 9.38468 -0.509514
          CHANNELS 3 Zrotation Xrotation Yrotation
          JOINT RightArm
          {
            OFFSET 0 12.3089 0
            CHANNELS 3 Zrotation Xrotation Yrotation
            JOINT RightArmRoll
            {
              OFFSET 0 6.21375 0
              CHANNELS 3 Zrotation Xrotation Yrotation
              JOINT RightForeArm
              {
                OFFSET 0 18.0985 0
                CHANNELS 3 Zrotation Xrotation Yrotation
                JOINT RightForeArmRoll
                {
                  OFFSET 0 6.97279 0
                  CHANNELS 3 Zrotation Xrotation Yrotation
                  JOINT RightHand
                  {
                    OFFSET 0 13.9929 0
                    CHANNELS 3 Zrotation Xrotation Yrotation
                    End Site
                    {
                      OFFSET 0 0 0
                    }
                  }
                }
              }
            }
          }
        }
        JOINT LeftShoulder
        {
          OFFSET 3.65916 9.38468 -0.509514
          CHANNELS 3 Zrotation Xrotation Yrotation
          JOINT LeftArm
          {
            OFFSET 0 12.3089 0
            CHANNELS 3 Zrotation Xrotation Yrotation
            JOINT LeftArmRoll
            {
              OFFSET 0 6.21375 0
              CHANNELS 3 Zrotation Xrotation Yrotation
              JOINT LeftForeArm
              {
                OFFSET 0 18.0985 0
                CHANNELS 3 Zrotation Xrotation Yrotation
                JOINT LeftForeArmRoll
                {
                  OFFSET 0 6.97279 0
                  CHANNELS 3 Zrotation Xrotation Yrotation
                  JOINT LeftHand
                  {
                    OFFSET 0 13.9929 0
                    CHANNELS 3 Zrotation Xrotation Yrotation
                    End Site
                    {
                      OFFSET 0 0 0
                    }
                  }
                }
              }
            }
          }
        }
      }
    }
  }
  JOINT RightUpLeg
  {
    OFFSET -5.53516 -1.015 -0.851454
    CHANNELS 3 Zrotation Xrotation Yrotation
    JOINT RightUpLegRoll
    {
      OFFSET 0 16.4075 0
      CHANNELS 3 Zrotation Xrotation Yrotation
      JOINT RightLeg
      {
        OFFSET 0 -20.3181 0
        CHANNELS 3 Zrotation Xrotation Yrotation
        JOINT RightLegRoll
        {
          OFFSET 0 20.3846 0
          CHANNELS 3 Zrotation Xrotation Yrotation
          JOINT RightFoot
          {
            OFFSET 0 16.9668 0
            CHANNELS 3 Zrotation Xrotation Yrotation
            JOINT RightToeBase
            {
              OFFSET 0 14.1834 0
              CHANNELS 3 Zrotation Xrotation Yrotation
              End Site
              {
                OFFSET 0.0060118 6.86889 -0.791746
              }
            }
          }
        }
      }
    }
  }
  JOINT LeftUpLeg
  {
    OFFSET 5.53516 -1.015 -0.851454
    CHANNELS 3 Zrotation Xrotation Yrotation
    JOINT LeftUpLegRoll
    {
      OFFSET 0 16.4076 0
      CHANNELS 3 Zrotation Xrotation Yrotation
      JOINT LeftLeg
      {
        OFFSET 0 20.3181 0
        CHANNELS 3 Zrotation Xrotation Yrotation
        JOINT LeftLegRoll
        {
          OFFSET 0 20.5731 0
          CHANNELS 3 Zrotation Xrotation Yrotation
          JOINT LeftFoot
          {
            OFFSET 0 16.7783 0
            CHANNELS 3 Zrotation Xrotation Yrotation
            JOINT LeftToeBase
            {
              OFFSET 0 14.1834 0
              CHANNELS 3 Zrotation Xrotation Yrotation
              End Site
              {
                OFFSET -0.0269423 6.8689 -0.791745
              }
            }
          }
        }
      }
    }
  }
}
MOTION
Frames: 4
Frame Time: 0.00208333
40.0939 83.9522 -0.8312 0.115021 0.827115 -0.124606 -0.0321862 -2.62255 -0.0121041 -0.0498077 -1.21764 -0.00591795 -0.0497245 0.427434 -0.00521375 1.59231 17.5202 -0.757573 -1.00891 3.33294 -0.255314 41.0452 -11.1048 -7.13673 59.6968 40.4215 44.7859 -4.0898e-06 -4.30752e-06 -9.95355e-06 -2.7789 2.89047 -1.06732 1.35314e-05 -1.1841e-05 -3 8.0301 -4.95138 0.697644 -39.183 -12.1005 8.07285 -58.209 41.066 -43.2023 3.18055e-15 1.43125e-14 1.27222e-14 5.12822 2.01917 0.494879 6.04332e-07 -4.73902e-06 2.99999 -8.03013 -4.9514 -0.697631 -178.494 8.50181 -1.23572 180 7.01528e-15 178.844 177.822 14.9571 179.567 3.51543e-06 -3.04062e-06 0.537422 -25.4309 71.8633 23.8179 8.13649 25.2327 -3.48773 179.338 0.877094 -0.461614 -1.07169e-05 -4.64205e-06 -1.13233 -1.6315 -10.287 0.575982 -8.76887e-07 2.67024e-06 -0.313528 25.1246 72.9463 -25.0702 -8.16248 25.6145 3.49818 
40.0929 83.9501 -0.832378 0.11517 0.825132 -0.122477 -0.03206 -2.62208 -0.0111851 -0.0501356 -1.21774 -0.00475975 -0.0500668 0.427337 -0.0040447 1.60163 17.524 -0.762624 -1.0114 3.32679 -0.256776 41.0547 -11.1083 -7.13979 59.6861 40.4203 44.7923 -4.0898e-06 -4.30752e-06 -9.95355e-06 -2.77937 2.88733 -1.06749 1.35314e-05 -1.1841e-05 -3 8.0301 -4.95138 0.697644 -39.1759 -12.0989 8.07168 -58.2174 41.0713 -43.2026 3.18055e-15 0 -1.27222e-14 5.13359 2.01743 0.49485 6.04332e-07 -4.73902e-06 2.99999 -8.03013 -4.9514 -0.697631 -178.495 8.50245 -1.23445 180 7.01528e-15 178.844 177.821 14.9614 179.567 3.51543e-06 -3.04062e-06 0.537442 -25.4339 71.8651 23.8202 8.13649 25.2327 -3.48773 179.337 0.8748 -0.461459 -1.07169e-05 -4.64205e-06 -1.13232 -1.63122 -10.286 0.576042 -8.76887e-07 2.67024e-06 -0.313498 25.1261 72.9474 -25.0722 -8.16236 25.6127 3.49796 
40.087 83.9505 -0.839535 0.115325 0.822572 -0.120191 -0.0317267 -2.62127 -0.0102142 -0.0502401 -1.21745 -0.00372262 -0.0501845 0.427623 -0.00299881 1.60909 17.5264 -0.767051 -1.01184 3.3213 -0.258072 41.0623 -11.1133 -7.14406 59.6774 40.4214 44.7978 -4.0898e-06 -4.30752e-06 -9.95355e-06 -2.77991 2.88481 -1.06762 1.35314e-05 -1.1841e-05 -3 8.0301 -4.95138 0.697644 -39.1694 -12.0982 8.07117 -58.2255 41.078 -43.2042 2.22639e-14 1.59028e-15 -6.36111e-15 5.14011 2.01566 0.494783 6.04332e-07 -4.73902e-06 2.99999 -8.03013 -4.9514 -0.697631 -178.496 8.50293 -1.23287 180 7.01528e-15 178.844 177.82 14.9665 179.568 3.51543e-06 -3.04062e-06 0.537463 -25.4373 71.8673 23.8229 8.13649 25.2327 -3.48773 179.337 0.871898 -0.461291 -1.07169e-05 -4.64205e-06 -1.1323 -1.63082 -10.285 0.576123 -8.76887e-07 2.67024e-06 -0.313471 25.1281 72.9488 -25.0748 -8.16221 25.6105 3.49768 
40.0841 83.9515 -0.840871 0.115489 0.819543 -0.117787 -0.0312177 -2.62015 -0.00920788 -0.050154 -1.21684 -0.00280212 -0.0501104 0.428228 -0.00207133 1.61487 17.5274 -0.770895 -1.01053 3.31642 -0.25921 41.0681 -11.1193 -7.14934 59.6706 40.4247 44.8025 -4.0898e-06 -4.30752e-06 -9.95355e-06 -2.78049 2.88287 -1.06773 1.35314e-05 -1.1841e-05 -3 8.0301 -4.95138 0.697644 -39.1634 -12.098 8.07124 -58.2333 41.0857 -43.2068 -3.18055e-15 -9.54166e-15 6.36111e-15 5.14756 2.01389 0.494684 6.04332e-07 -4.73902e-06 2.99999 -8.03013 -4.9514 -0.697631 -178.497 8.50326 -1.23105 180 7.01528e-15 178.844 177.819 14.9722 179.568 3.51543e-06 -3.04062e-06 0.537484 -25.4411 71.8698 23.8259 8.13649 25.2327 -3.48773 179.336 0.86848 -0.461112 -1.07169e-05 -4.64205e-06 -1.13228 -1.63032 -10.2839 0.576224 -8.76887e-07 2.67024e-06 -0.313446 25.1304 72.9504 -25.0779 -8.16204 25.608 3.49736 
